<?xml version="1.0" encoding="UTF-8"?>
<svg version="1.1" xmlns="http://www.w3.org/2000/svg" width="247" height="69">
<path d="M0 0 C81.51 0 163.02 0 247 0 C247 22.77 247 45.54 247 69 C165.49 69 83.98 69 0 69 C0 46.23 0 23.46 0 0 Z " fill="#023627" transform="translate(0,0)"/>
<path d="M0 0 C4.83458739 2.86002148 7.95023222 5.5889779 9.7578125 11.01171875 C10.59648008 17.08606825 9.66140729 21.16045821 6.33984375 26.28515625 C3.46336284 29.42442677 0.86304976 30.85817515 -3.36328125 31.4453125 C-14.54837664 31.45848694 -14.54837664 31.45848694 -19.2421875 27.01171875 C-23.39030631 22.29144562 -23.59992103 17.81622015 -23.51171875 11.73828125 C-23.12046414 7.78037229 -22.01201274 5.85078962 -19.2421875 3.01171875 C-13.45722018 -1.15398006 -6.73124925 -2.96690951 0 0 Z " fill="#EDF0F1" transform="translate(196.2421875,18.98828125)"/>
<path d="M0 0 C3.1731873 1.04388965 4.4399833 2.8689884 6.08984375 5.6875 C7.28313715 8.07408681 7.27618904 9.70745163 7.37109375 12.37109375 C7.42716797 13.76231445 7.42716797 13.76231445 7.484375 15.18164062 C7.53658203 16.63860352 7.53658203 16.63860352 7.58984375 18.125 C7.65875627 20.04051283 7.73150723 21.95589246 7.80859375 23.87109375 C7.83888672 24.72243896 7.86917969 25.57378418 7.90039062 26.45092773 C8.01602905 28.85776598 8.01602905 28.85776598 9.08984375 31.6875 C4.13984375 31.6875 -0.81015625 31.6875 -5.91015625 31.6875 C-5.58015625 30.6975 -5.25015625 29.7075 -4.91015625 28.6875 C-4.81780196 27.14535766 -4.7794797 25.5995913 -4.77734375 24.0546875 C-4.77605469 23.16652344 -4.77476563 22.27835938 -4.7734375 21.36328125 C-4.77730469 20.43902344 -4.78117187 19.51476562 -4.78515625 18.5625 C-4.78128906 17.63050781 -4.77742188 16.69851562 -4.7734375 15.73828125 C-4.77472656 14.85269531 -4.77601562 13.96710937 -4.77734375 13.0546875 C-4.77847168 12.24112793 -4.77959961 11.42756836 -4.78076172 10.58935547 C-4.70150152 8.67699534 -4.70150152 8.67699534 -5.91015625 7.6875 C-8.41015625 7.52083333 -8.41015625 7.52083333 -10.91015625 7.6875 C-12.45017885 9.2275226 -12.03981408 10.66033987 -12.04296875 12.80078125 C-12.04425781 13.63673828 -12.04554687 14.47269531 -12.046875 15.33398438 C-12.04300781 16.21376953 -12.03914063 17.09355469 -12.03515625 18 C-12.03902344 18.86818359 -12.04289062 19.73636719 -12.046875 20.63085938 C-12.04494141 21.8905957 -12.04494141 21.8905957 -12.04296875 23.17578125 C-12.04184082 23.94446533 -12.04071289 24.71314941 -12.03955078 25.50512695 C-11.95785613 28.01999109 -11.95785613 28.01999109 -10.91015625 31.6875 C-15.86015625 31.6875 -20.81015625 31.6875 -25.91015625 31.6875 C-25.58015625 31.0275 -25.25015625 30.3675 -24.91015625 29.6875 C-24.82456507 27.50925039 -24.80302213 25.32834745 -24.8125 23.1484375 C-24.81572266 21.84648438 -24.81894531 20.54453125 -24.82226562 19.203125 C-24.83062159 17.82291601 -24.83908654 16.44270768 -24.84765625 15.0625 C-24.85267124 13.67448074 -24.85723415 12.28645978 -24.86132812 10.8984375 C-24.87314649 7.49474868 -24.88962191 4.09114561 -24.91015625 0.6875 C-20.95015625 0.6875 -16.99015625 0.6875 -12.91015625 0.6875 C-12.58015625 1.6775 -12.25015625 2.6675 -11.91015625 3.6875 C-11.27078125 3.006875 -10.63140625 2.32625 -9.97265625 1.625 C-6.22057357 -0.74876659 -4.27737596 -0.68324142 0 0 Z " fill="#E9EDED" transform="translate(129.91015625,18.3125)"/>
<path d="M0 0 C4.06662662 1.55271198 5.57519602 2.36279402 8 6 C8.30297852 8.29663086 8.30297852 8.29663086 8.37890625 10.96484375 C8.43014648 12.41213867 8.43014648 12.41213867 8.48242188 13.88867188 C8.50884766 14.89478516 8.53527344 15.90089844 8.5625 16.9375 C8.62259945 18.92589661 8.68626391 20.91418944 8.75390625 22.90234375 C8.77783447 23.78398193 8.8017627 24.66562012 8.82641602 25.57397461 C8.95072622 28.29216409 8.95072622 28.29216409 10 32 C6.04 32 2.08 32 -2 32 C-2.495 29.525 -2.495 29.525 -3 27 C-3.99 28.2375 -3.99 28.2375 -5 29.5 C-8.47111283 32.39259403 -8.47111283 32.39259403 -12.0625 32.5 C-16 32 -16 32 -18.4375 31.0625 C-20.98694217 27.69723634 -21.28510053 24.15223335 -21 20 C-19.11974831 16.23949661 -16.9651438 14.79339533 -13.1875 13.25 C-9.47977056 12.01872775 -5.8797772 11.40414346 -2 11 C-2.33 9.68 -2.66 8.36 -3 7 C-9.12913259 6.5773012 -12.04691633 6.99036084 -17 11 C-17.66 11.66 -18.32 12.32 -19 13 C-19 9.04 -19 5.08 -19 1 C-16.98177083 1.03255208 -14.96354167 1.06510417 -12.9453125 1.09765625 C-8.4842697 0.87370832 -4.78196459 -0.45810417 0 0 Z " fill="#EBEEEF" transform="translate(92,18)"/>
<path d="M0 0 C3.14595474 2.02739305 4.90509703 3.58458728 6.8125 6.8125 C6.8125 9.1225 6.8125 11.4325 6.8125 13.8125 C0.5425 13.8125 -5.7275 13.8125 -12.1875 13.8125 C-9.7672509 19.44356761 -9.7672509 19.44356761 -7.1875 21.8125 C-1.5035197 22.28616503 1.81024887 21.81385068 6.8125 18.8125 C6.30822053 23.22494536 4.79922249 25.56224317 1.8125 28.8125 C-2.45592385 31.6581159 -6.1792864 31.31254005 -11.1875 30.8125 C-15.92579769 29.14532118 -18.3886938 26.95887955 -21.1875 22.8125 C-22.63766555 18.46200335 -22.69820107 14.35915815 -22.1875 9.8125 C-17.67794615 0.7933923 -9.81050642 -3.65489455 0 0 Z " fill="#EDF0F0" transform="translate(30.1875,19.1875)"/>
<path d="M0 0 C3.39947764 2.26631843 4.9591167 4.23951737 6.8125 7.875 C6.8125 9.855 6.8125 11.835 6.8125 13.875 C0.5425 13.875 -5.7275 13.875 -12.1875 13.875 C-10.87452878 19.86038237 -10.87452878 19.86038237 -7.1875 21.875 C-1.48932562 22.34206347 1.79678297 21.88443022 6.8125 18.875 C6.30864177 23.28375955 4.9011933 25.70050966 1.8125 28.875 C-2.63818076 31.62394988 -8.13031073 31.78088281 -13.1875 30.875 C-16.91187278 28.83546252 -19.35583383 26.17673835 -21.625 22.625 C-22.80118143 16.87477967 -23.16448745 11.8289749 -20.5 6.5 C-14.61456902 -0.18075949 -8.84198351 -3.12070006 0 0 Z " fill="#EEF1F1" transform="translate(163.1875,19.125)"/>
<path d="M0 0 C0.75732422 0.04833984 1.51464844 0.09667969 2.29492188 0.14648438 C3.08060547 0.20255859 3.86628906 0.25863281 4.67578125 0.31640625 C5.47306641 0.36861328 6.27035156 0.42082031 7.09179688 0.47460938 C9.05764647 0.60409647 11.0230179 0.74080666 12.98828125 0.87890625 C12.98828125 4.17890625 12.98828125 7.47890625 12.98828125 10.87890625 C12.16328125 10.23953125 11.33828125 9.60015625 10.48828125 8.94140625 C6.75636719 6.41477544 3.43104822 6.18530397 -1.01171875 5.87890625 C-1.34171875 6.86890625 -1.67171875 7.85890625 -2.01171875 8.87890625 C-0.67367187 9.24242187 -0.67367187 9.24242187 0.69140625 9.61328125 C1.861875 9.9484375 3.03234375 10.28359375 4.23828125 10.62890625 C5.3984375 10.95375 6.55859375 11.27859375 7.75390625 11.61328125 C11.14525057 12.94032903 12.80574045 13.98822873 14.98828125 16.87890625 C15.7872635 19.9591206 15.64707392 22.77316938 14.98828125 25.87890625 C12.8066898 28.63460072 11.11650631 30.31479372 7.98828125 31.87890625 C6.46679799 31.96263284 4.94172347 31.98620652 3.41796875 31.9765625 C2.52207031 31.97333984 1.62617188 31.97011719 0.703125 31.96679688 C-0.70259766 31.95422852 -0.70259766 31.95422852 -2.13671875 31.94140625 C-3.08160156 31.93689453 -4.02648437 31.93238281 -5 31.92773438 C-7.33726645 31.91593 -9.67450044 31.89799424 -12.01171875 31.87890625 C-12.01171875 27.58890625 -12.01171875 23.29890625 -12.01171875 18.87890625 C-10.25390625 20.40885417 -8.49609375 21.93880208 -6.73828125 23.46875 C-4.0021591 25.7034561 -2.34545515 25.99719232 1.11328125 25.94140625 C2.39203125 25.92078125 3.67078125 25.90015625 4.98828125 25.87890625 C5.31828125 24.55890625 5.64828125 23.23890625 5.98828125 21.87890625 C5.18003906 21.70875 4.37179688 21.53859375 3.5390625 21.36328125 C-7.23041782 18.92098656 -7.23041782 18.92098656 -11.01171875 14.87890625 C-12.58107469 11.74019437 -12.36372978 9.34034803 -12.01171875 5.87890625 C-8.45119687 1.45231148 -5.66200734 -0.38314335 0 0 Z " fill="#E9EDED" transform="translate(221.01171875,18.12109375)"/>
<path d="M0 0 C4.62 0 9.24 0 14 0 C14.433125 1.4025 14.86625 2.805 15.3125 4.25 C16.43703944 7.65039306 17.54922663 10.31581964 20 13 C20.67595315 11.58774074 21.34040059 10.16997095 22 8.75 C22.37125 7.96109375 22.7425 7.1721875 23.125 6.359375 C24.23181252 3.7943343 24.23181252 3.7943343 24 0 C27.3 0 30.6 0 34 0 C28.84510659 10.43317522 23.53125596 20.76129216 18 31 C17.34 31 16.68 31 16 31 C14.04242808 27.22822332 12.08524552 23.45624493 10.12841797 19.68408203 C9.46315951 18.4018004 8.79779611 17.11957322 8.13232422 15.83740234 C7.17387504 13.9907043 6.21580782 12.14380852 5.2578125 10.296875 C4.6817627 9.18666992 4.10571289 8.07646484 3.51220703 6.93261719 C2.32495614 4.63018617 1.15851226 2.31702452 0 0 Z " fill="#EEF1F1" transform="translate(37,19)"/>
<path d="M0 0 C2.9375 -0.4375 2.9375 -0.4375 6 0 C8.27285054 2.25688203 8.95089709 3.65002139 9.3984375 6.83984375 C9.39070312 7.86207031 9.38296875 8.88429688 9.375 9.9375 C9.38273438 10.95714844 9.39046875 11.97679687 9.3984375 13.02734375 C8.9471746 16.39411888 8.04462178 18.30481675 6 21 C3.19188245 21.56162351 1.77743935 21.50468616 -0.63671875 19.9375 C-2.71368626 16.98570664 -2.3951512 13.97135032 -2.3125 10.5 C-2.31572266 9.82324219 -2.31894531 9.14648438 -2.32226562 8.44921875 C-2.28230168 4.76526986 -2.09194697 3.13792046 0 0 Z " fill="#0A3D2E" transform="translate(186,24)"/>
<path d="M0 0 C0.25 6.625 0.25 6.625 -2 10 C-5.0625 10.25 -5.0625 10.25 -8 10 C-9 9 -9 9 -9.3125 6.625 C-9 4 -9 4 -7.1875 2.25 C-4.77453229 0.87116131 -2.8077033 0 0 0 Z " fill="#063A2B" transform="translate(90,33)"/>
<path d="M0 0 C2.5 0.25 2.5 0.25 4.5 2.25 C4.5 3.57 4.5 4.89 4.5 6.25 C1.2 6.25 -2.1 6.25 -5.5 6.25 C-4.03846154 0.40384615 -4.03846154 0.40384615 0 0 Z " fill="#0E4032" transform="translate(156.5,22.75)"/>
<path d="M0 0 C2.5625 0.1875 2.5625 0.1875 4.5625 2.1875 C4.5625 3.5075 4.5625 4.8275 4.5625 6.1875 C1.2625 6.1875 -2.0375 6.1875 -5.4375 6.1875 C-3.15091463 0.24237805 -3.15091463 0.24237805 0 0 Z " fill="#0A3D2F" transform="translate(23.4375,22.8125)"/>
</svg>
